<?xml version="1.0" standalone="no"?>
<!DOCTYPE svg PUBLIC "-//W3C//DTD SVG 20010904//EN"
 "http://www.w3.org/TR/2001/REC-SVG-20010904/DTD/svg10.dtd">
<svg version="1.0" xmlns="http://www.w3.org/2000/svg"
 width="594.000000pt" height="594.000000pt" viewBox="0 0 594.000000 594.000000"
 preserveAspectRatio="xMidYMid meet">
<metadata>
Created by potrace 1.14, written by Peter Selinger 2001-2017
</metadata>
<g transform="translate(0.000000,594.000000) scale(0.100000,-0.100000)"
fill="#000000" stroke="none">
<path d="M793 4972 c-85 -84 -223 -259 -316 -402 -215 -331 -377 -744 -432
-1100 -3 -19 -8 -46 -10 -60 -6 -28 -12 -82 -23 -185 -14 -145 -6 -536 14
-640 2 -11 7 -42 10 -70 3 -27 11 -76 19 -108 7 -31 13 -58 13 -60 0 -18 22
-108 53 -213 122 -415 334 -797 628 -1133 105 -120 140 -116 289 31 145 144
158 182 86 263 -71 80 -182 222 -220 280 -21 33 -41 62 -44 65 -5 5 -5 5 -87
151 -100 179 -192 430 -241 659 -116 537 -49 1091 189 1585 105 219 202 362
413 610 32 38 42 85 24 118 -6 12 -62 73 -123 135 -111 110 -114 112 -158 112
-39 0 -51 -5 -84 -38z"/>
<path d="M4995 4988 c-30 -18 -221 -210 -234 -235 -26 -50 -15 -76 80 -189
238 -284 417 -628 508 -974 22 -85 49 -220 57 -295 4 -27 10 -72 14 -100 8
-53 6 -452 -3 -495 -3 -14 -8 -47 -11 -75 -6 -54 -14 -101 -21 -125 -2 -8 -7
-30 -10 -49 -7 -43 -60 -234 -79 -289 -50 -140 -131 -317 -198 -433 -50 -87
-180 -270 -253 -358 -94 -112 -108 -147 -82 -197 8 -16 65 -77 125 -136 106
-103 113 -108 153 -108 39 0 48 5 99 58 113 117 281 346 369 502 266 470 394
953 393 1475 0 178 -7 278 -32 440 -5 33 -12 78 -15 100 -4 22 -11 58 -17 80
-5 22 -12 51 -15 65 -11 66 -97 338 -128 405 -7 17 -25 59 -40 95 -104 250
-317 579 -511 788 -40 44 -56 54 -89 58 -22 2 -49 -1 -60 -8z"/>
<path d="M1405 4428 c-27 -15 -41 -30 -121 -129 -221 -274 -385 -635 -439
-964 -28 -176 -38 -455 -21 -590 12 -92 37 -239 52 -300 37 -148 138 -404 199
-505 12 -19 34 -57 49 -85 56 -101 236 -329 276 -350 65 -34 94 -18 233 123
99 101 107 112 107 148 0 40 -13 65 -60 117 -154 174 -314 500 -355 727 -4 19
-8 42 -10 50 -3 14 -11 71 -20 145 -2 17 -4 75 -5 130 -2 407 128 770 392
1091 50 61 58 76 58 112 0 40 -5 48 -113 156 -129 132 -169 154 -222 124z"/>
<path d="M4425 4414 c-37 -19 -232 -216 -244 -246 -16 -41 0 -80 62 -158 168
-209 274 -428 331 -682 110 -492 -3 -990 -316 -1391 -67 -86 -86 -119 -82
-144 1 -7 2 -20 3 -29 1 -17 202 -228 232 -244 35 -19 75 -19 105 -1 99 60
339 433 423 656 13 33 27 69 32 80 10 25 55 177 65 225 4 19 8 37 9 40 1 3 5
25 9 50 5 25 10 54 12 65 27 138 26 528 -2 670 -2 11 -9 46 -14 77 -37 203
-134 457 -258 673 -60 105 -226 324 -266 350 -32 21 -71 25 -101 9z"/>
<path d="M2917 4344 c-1 -1 -40 -5 -87 -8 -536 -40 -1012 -417 -1185 -940 -18
-55 -36 -117 -39 -136 -3 -19 -8 -46 -11 -60 -21 -99 -25 -272 -10 -397 52
-412 264 -758 610 -990 69 -46 262 -143 285 -143 9 0 20 -4 25 -9 12 -10 160
-47 225 -56 25 -3 53 -8 64 -12 24 -7 288 -7 312 0 10 3 44 9 74 12 65 8 199
46 290 82 446 178 783 610 847 1085 10 72 10 332 0 393 -59 369 -254 691 -552
913 -188 140 -457 240 -690 257 -120 10 -155 11 -158 9z"/>
</g>
</svg>
