<svg width="232" height="120" viewBox="0 0 232 120" fill="none" xmlns="http://www.w3.org/2000/svg">
<rect width="232" height="120" rx="12" fill="white"/>
<path d="M64 40C64 37.7909 65.7909 36 68 36H160C162.209 36 164 37.7909 164 40V80C164 82.2091 162.209 84 160 84H68C65.7909 84 64 82.2091 64 80V40Z" fill="white"/>
<path d="M137.8 64.3534L134.336 56.7849H131.461L136.409 66.997L136.32 67.3045C136.196 67.7132 135.935 68.0662 135.58 68.3032C135.225 68.5402 134.799 68.6465 134.375 68.6039C133.879 68.5993 133.392 68.4679 132.96 68.222L132.5 70.4093C133.164 70.6836 133.875 70.8267 134.593 70.8308C136.572 70.8308 137.77 70.1017 138.76 67.9542L144 56.7849H141.224L137.8 64.3534Z" fill="black"/>
<path d="M113.319 53.1792H105.015V67.0912H107.737V61.9777H113.319C116.352 61.9777 118.346 60.4452 118.346 57.5785C118.346 54.7118 116.352 53.1792 113.319 53.1792ZM113.17 59.5425H107.727V55.5747H113.17C114.744 55.5747 115.644 56.2939 115.644 57.5586C115.644 58.8234 114.744 59.5425 113.17 59.5425Z" fill="black"/>
<path d="M129.725 64.4526V60.2616C129.725 57.7818 127.948 56.4972 124.9 56.4972C122.426 56.4972 120.259 57.6528 119.65 59.4284L121.887 60.2219C122.218 59.3341 123.371 58.6795 124.806 58.6795C126.508 58.6795 127.226 59.3738 127.226 60.2219V60.4947L123.178 60.9411C120.847 61.1891 119.313 62.2356 119.313 64.1054C119.313 66.1538 121.07 67.2548 123.401 67.2548C124.903 67.3017 126.366 66.7692 127.488 65.7669C127.894 66.7588 128.31 67.4234 131.076 67.0713V64.9981C129.967 65.266 129.725 64.9981 129.725 64.4526ZM127.251 63.1234C127.251 64.4724 125.365 65.1866 123.787 65.1866C122.584 65.1866 121.862 64.7998 121.862 64.031C121.862 63.2622 122.456 62.9845 123.604 62.8506L127.261 62.4241L127.251 63.1234Z" fill="black"/>
<path d="M99.8678 63.8277C99.8871 63.8856 99.8871 63.9483 99.8678 64.0062C99.8566 64.064 99.8292 64.1174 99.7886 64.16L97.1709 66.9126C97.1132 66.9721 97.0442 67.0193 96.968 67.0515C96.8916 67.0851 96.809 67.102 96.7256 67.1011H84.31C84.2525 67.1016 84.196 67.0862 84.1467 67.0565C84.0974 67.0229 84.0581 66.9766 84.0329 66.9226C84.0154 66.8677 84.0154 66.8088 84.0329 66.7539C84.0431 66.6968 84.0688 66.6437 84.1071 66.6002L86.7298 63.8475C86.7874 63.7881 86.8564 63.7409 86.9326 63.7087C87.0089 63.6747 87.0917 63.6577 87.1751 63.6591H99.5709C99.6307 63.6579 99.6895 63.6752 99.7391 63.7087C99.7948 63.7317 99.8405 63.7739 99.8678 63.8277ZM97.1759 58.6002C97.1169 58.5423 97.0482 58.4953 96.973 58.4613C96.8958 58.4301 96.8137 58.4133 96.7305 58.4117H84.31C84.2518 58.4125 84.195 58.4297 84.146 58.4613C84.097 58.4928 84.0578 58.5375 84.0329 58.5902C84.0158 58.6451 84.0158 58.704 84.0329 58.7589C84.0412 58.8166 84.0671 58.8703 84.1071 58.9126L86.7298 61.6702C86.7887 61.7281 86.8574 61.7751 86.9326 61.8091C87.0096 61.8407 87.0919 61.8575 87.1751 61.8587H99.5709C99.6307 61.8598 99.6895 61.8425 99.7391 61.8091C99.7891 61.7799 99.8275 61.7344 99.848 61.6801C99.8734 61.6274 99.8818 61.568 99.872 61.5103C99.8623 61.4525 99.8349 61.3992 99.7936 61.3578L97.1759 58.6002ZM84.1467 56.5667C84.196 56.5964 84.2525 56.6118 84.31 56.6113H96.7305C96.8139 56.6122 96.8966 56.5953 96.973 56.5617C97.0492 56.5295 97.1182 56.4823 97.1759 56.4228L99.7936 53.6702C99.8341 53.6276 99.8616 53.5742 99.8728 53.5164C99.8899 53.4615 99.8899 53.4027 99.8728 53.3478C99.8523 53.2936 99.8139 53.2481 99.7639 53.2189C99.7142 53.1854 99.6555 53.1681 99.5956 53.1693H87.1553C87.0719 53.1679 86.9891 53.1849 86.9129 53.2189C86.8366 53.2511 86.7676 53.2983 86.71 53.3577L84.0923 56.1203C84.0507 56.1622 84.0231 56.2159 84.0131 56.274C83.9956 56.3289 83.9956 56.3878 84.0131 56.4427C84.0452 56.4957 84.0915 56.5386 84.1467 56.5667Z" fill="url(#paint0_linear_145_3441)"/>
<path d="M68 37H160V35H68V37ZM163 40V80H165V40H163ZM160 83H68V85H160V83ZM65 80V40H63V80H65ZM68 83C66.3431 83 65 81.6569 65 80H63C63 82.7614 65.2386 85 68 85V83ZM163 80C163 81.6569 161.657 83 160 83V85C162.761 85 165 82.7614 165 80H163ZM160 37C161.657 37 163 38.3431 163 40H165C165 37.2386 162.761 35 160 35V37ZM68 35C65.2386 35 63 37.2386 63 40H65C65 38.3431 66.3431 37 68 37V35Z" fill="black"/>
<defs>
<linearGradient id="paint0_linear_145_3441" x1="85.3409" y1="67.4332" x2="98.0922" y2="52.7744" gradientUnits="userSpaceOnUse">
<stop offset="0.08" stop-color="#9945FF"/>
<stop offset="0.3" stop-color="#8752F3"/>
<stop offset="0.5" stop-color="#5497D5"/>
<stop offset="0.6" stop-color="#43B4CA"/>
<stop offset="0.72" stop-color="#28E0B9"/>
<stop offset="0.97" stop-color="#19FB9B"/>
</linearGradient>
</defs>
</svg>
