<svg width="758" height="135" viewBox="0 0 758 135" fill="none" xmlns="http://www.w3.org/2000/svg">
<path fill-rule="evenodd" clip-rule="evenodd" d="M31.1916 75.9924C31.1916 60.311 31.1916 52.4702 34.2434 46.4807C36.9279 41.2122 41.2113 36.9287 46.4799 34.2443C52.4694 31.1924 60.3101 31.1924 75.9916 31.1924H98.3916C114.073 31.1924 121.914 31.1924 127.903 34.2443C133.172 36.9287 137.455 41.2122 140.14 46.4807C143.192 52.4702 143.192 60.311 143.192 75.9924V82.3924C143.192 98.0739 143.192 105.915 140.14 111.904C137.455 117.173 133.172 121.456 127.903 124.141C121.914 127.192 114.073 127.192 98.3916 127.192H56.7916C47.8308 127.192 43.3503 127.192 39.9278 125.449C36.9172 123.915 34.4695 121.467 32.9355 118.456C31.1916 115.034 31.1916 110.553 31.1916 101.592V75.9924ZM71.1916 79.1924C71.1916 74.7742 74.7733 71.1924 79.1916 71.1924C83.6099 71.1924 87.1916 74.7742 87.1916 79.1924V95.1924C87.1916 99.6107 83.6099 103.192 79.1916 103.192C74.7733 103.192 71.1916 99.6107 71.1916 95.1924V79.1924ZM111.192 71.1924C106.773 71.1924 103.192 74.7742 103.192 79.1924V95.1924C103.192 99.6107 106.773 103.192 111.192 103.192C115.61 103.192 119.192 99.6107 119.192 95.1924V79.1924C119.192 74.7742 115.61 71.1924 111.192 71.1924Z" fill="#09161D"/>
<path fill-rule="evenodd" clip-rule="evenodd" d="M59.1305 7.01358C59.6757 11.3981 56.5634 15.3944 52.1789 15.9397C49.762 16.2402 47.8202 16.6491 46.1015 17.1847C32.2962 21.4866 21.4858 32.297 17.1839 46.1023C16.6483 47.8211 16.2394 49.7628 15.9388 52.1797C15.3936 56.5642 11.3972 59.6765 7.01274 59.1313C2.62823 58.586 -0.4841 54.5897 0.0611478 50.2052C0.452741 47.0563 1.0323 44.1536 1.90836 41.3423C7.77459 22.5169 22.516 7.77543 41.3414 1.90919C44.1528 1.03314 47.0554 0.45358 50.2043 0.061987C54.5889 -0.483261 58.5852 2.62907 59.1305 7.01358Z" fill="#09161D"/>
<path d="M217.432 52.3608C205.896 52.3608 195.48 59.5288 195.48 70.2808C195.48 80.3608 204.776 83.7208 213.96 85.0648C220.008 85.9608 222.248 86.4088 222.248 88.6488C222.248 90.6648 220.456 91.6728 217.656 91.6728C210.6 91.6728 208.024 89.0968 202.2 89.0968C197.16 89.0968 195.256 92.7928 195.256 97.4968C195.256 102.537 204.328 106.121 215.752 106.121C230.872 106.121 238.824 99.2888 238.824 88.2008C238.824 77.8968 231.096 73.8648 219.112 72.1848C215.192 71.6248 211.944 71.6249 211.944 69.2729C211.944 67.1448 214.632 66.1368 217.992 66.1368C221.8 66.1368 226.504 68.3768 230.2 68.3768C235.016 68.3768 237.032 65.2408 237.032 60.6488C237.032 57.5128 235.016 55.7208 232.664 54.7128C228.52 52.9208 223.816 52.3608 217.432 52.3608Z" fill="#09161D"/>
<path d="M248.254 68.8248H252.062C252.174 74.0888 251.95 79.5768 251.95 84.8408C251.95 99.6248 259.79 105.673 270.094 105.673C275.918 105.673 278.27 105.225 280.846 103.433C282.862 102.089 283.87 100.185 283.87 95.9288C283.87 92.3448 281.518 88.7608 277.486 88.7608C275.806 88.7608 275.358 89.3208 273.118 89.3208C270.206 89.3208 269.422 85.9608 269.422 83.2729V68.7128H277.15C281.182 68.7128 283.198 65.1288 283.198 60.9848C283.198 55.8328 280.51 53.2568 275.918 53.3688H269.534C269.646 49.5608 269.758 46.9848 269.758 44.8568C269.758 40.6008 266.958 37.9128 262.366 37.9128C255.982 37.9128 252.622 41.2728 252.398 47.5448L252.174 53.4808H248.702C244.558 53.4808 241.758 56.7288 241.758 60.9848C241.758 65.6888 243.55 68.8248 248.254 68.8248Z" fill="#09161D"/>
<path d="M291.881 60.9848V71.0648C291.881 78.6808 291.657 88.5368 291.657 97.1609C291.657 103.769 295.577 105.561 300.617 105.561C305.657 105.561 309.801 103.545 309.913 98.2808C310.137 94.0248 309.689 87.9768 309.689 83.8328C309.689 72.9688 314.057 69.6088 319.993 69.6088H321.449C326.265 69.6088 328.505 65.0168 328.505 60.7608C328.505 54.9368 325.817 52.3608 320.777 52.3608C315.849 52.3608 310.361 55.7208 308.345 60.3128L307.561 57.5128C306.665 54.3768 304.313 52.8088 300.841 52.8088C295.241 52.8088 291.881 55.6088 291.881 60.9848Z" fill="#09161D"/>
<path d="M349.889 83.8328C363.665 83.7208 370.945 83.4968 373.185 83.4968C380.689 83.3848 382.257 80.3608 382.257 73.6408C382.257 62.8888 372.625 52.3608 358.289 52.3608C343.169 52.3608 331.297 64.0088 331.297 80.4728C331.297 94.6968 343.057 106.009 357.841 106.009C366.913 106.009 371.953 104.441 375.873 102.089C378.561 100.521 380.017 98.0568 380.017 95.3688C380.017 90.7768 376.769 86.7449 372.737 86.7449C370.721 86.7449 368.929 87.3048 367.025 88.3128C365.233 89.3208 362.097 90.3288 358.961 90.3288C355.265 90.3288 350.673 88.2009 349.889 83.8328ZM358.065 66.5848C361.985 66.5848 365.009 69.0488 365.009 72.2968C365.009 72.7448 364.337 72.8568 363.665 72.8568C359.185 72.9688 354.033 73.1928 349.777 73.1928C350.113 69.8328 353.585 66.5848 358.065 66.5848Z" fill="#09161D"/>
<path d="M444.378 69.4968L444.49 60.8728C444.49 55.7208 441.69 52.9208 435.978 52.9208C433.178 52.9208 430.714 53.7048 429.258 55.7208C428.698 56.5048 428.25 57.4008 427.914 58.6328C425.226 54.8248 420.522 52.6968 415.37 52.6968C400.362 52.6968 388.826 63.2248 388.826 80.3608C388.826 94.9209 398.458 105.785 414.026 105.785C419.962 105.785 424.778 102.985 427.466 98.6168C428.922 103.657 431.386 105.449 435.306 105.449C440.458 105.449 444.714 104.105 444.714 97.8328C444.49 94.0248 444.378 90.2168 444.378 86.4088V69.4968ZM407.418 79.9128C407.418 72.4088 411.338 68.2648 417.05 68.2648C422.09 68.2648 426.682 72.0728 426.682 79.1288C426.682 86.1848 421.978 90.4408 416.49 90.4408C411.226 90.4408 407.418 85.8489 407.418 79.9128Z" fill="#09161D"/>
<path d="M456.928 76.8888L456.816 90.3288C456.592 95.5928 456.704 96.0408 456.704 97.4968C456.704 103.657 461.296 105.449 465.664 105.449C470.704 105.449 475.184 103.321 475.184 98.2808V79.2408C475.072 73.6408 476.304 67.5928 482.688 67.5928C486.944 67.5928 488.96 72.2968 488.96 76.2169C489.072 86.7449 488.736 89.8808 488.736 98.1688C488.736 102.985 492.32 105.337 497.472 105.449C502.4 105.561 506.656 103.545 506.88 98.6168C506.992 95.0328 506.992 91.0008 506.992 87.8648C506.992 83.2728 506.992 79.5768 507.104 74.9848C507.104 70.9528 510.352 67.8168 514.16 67.8168C518.752 67.8168 519.872 71.8489 519.872 76.2169C519.872 85.2888 519.536 91.7848 519.536 98.2808C519.536 102.649 523.12 105.449 528.72 105.449C532.08 105.449 537.568 104.553 537.904 98.8408C538.128 94.3608 538.128 90.3288 538.128 86.4088L538.016 73.8648C538.016 60.8728 531.744 52.1368 517.52 52.3608C512.144 52.4728 505.76 55.8328 502.512 60.4248C499.712 55.7208 494.896 52.3608 487.504 52.3608C482.128 52.3608 476.416 55.9448 474.4 59.6408L473.952 57.6248C473.28 54.7128 470.368 52.3608 466.336 52.3608C460.064 52.3608 456.816 55.1608 456.816 60.3128C456.816 63.8968 457.152 66.3608 456.928 76.8888Z" fill="#09161D"/>
<path d="M550.342 32.4248C550.118 50.9048 549.782 75.3208 550.23 93.2408C550.342 103.321 554.374 106.121 560.646 105.449C567.254 104.777 569.158 102.313 569.382 96.9368C569.494 93.2408 569.158 88.9848 569.158 84.2808C569.158 66.8088 569.158 49.7848 569.494 32.4248C569.606 26.8248 565.798 24.1368 559.862 24.1368C554.71 24.1368 550.454 26.7128 550.342 32.4248Z" fill="#09161D"/>
<path d="M634.362 69.4968L634.474 60.8728C634.474 55.7208 631.674 52.9208 625.962 52.9208C623.162 52.9208 620.698 53.7048 619.242 55.7208C618.682 56.5048 618.234 57.4008 617.898 58.6328C615.21 54.8248 610.506 52.6968 605.354 52.6968C590.346 52.6968 578.81 63.2248 578.81 80.3608C578.81 94.9209 588.442 105.785 604.01 105.785C609.946 105.785 614.762 102.985 617.45 98.6168C618.906 103.657 621.37 105.449 625.29 105.449C630.442 105.449 634.698 104.105 634.698 97.8328C634.474 94.0248 634.362 90.2168 634.362 86.4088V69.4968ZM597.402 79.9128C597.402 72.4088 601.322 68.2648 607.034 68.2648C612.074 68.2648 616.666 72.0728 616.666 79.1288C616.666 86.1848 611.962 90.4408 606.474 90.4408C601.21 90.4408 597.402 85.8489 597.402 79.9128Z" fill="#09161D"/>
<path d="M646.913 31.9768L647.137 77.0008L646.801 95.9288C646.689 101.753 648.817 105.113 653.969 105.337C658.561 105.561 661.697 104.217 662.705 99.9608L663.041 98.5048C665.617 102.985 671.105 105.897 676.817 105.897C692.721 105.897 703.473 93.6889 703.473 78.4568C703.473 64.0088 693.393 52.3608 678.609 52.3608C673.009 52.3608 667.745 54.0408 664.833 58.6328C664.833 58.5208 664.833 56.9528 665.169 31.3048C665.281 24.6968 660.577 23.4648 655.649 23.4648C650.721 23.4648 647.025 25.8168 646.913 31.9768ZM685.105 78.5688C685.105 85.5128 679.953 90.5528 674.689 90.5528C669.649 90.5528 665.057 86.0728 665.057 79.4648C665.057 71.6248 669.873 68.1528 675.585 68.1528C680.513 68.1528 685.105 72.0728 685.105 78.5688Z" fill="#09161D"/>
<path d="M733.135 52.3608C721.599 52.3608 711.183 59.5288 711.183 70.2808C711.183 80.3608 720.479 83.7208 729.663 85.0648C735.711 85.9608 737.951 86.4088 737.951 88.6488C737.951 90.6648 736.159 91.6728 733.359 91.6728C726.303 91.6728 723.727 89.0968 717.903 89.0968C712.863 89.0968 710.959 92.7928 710.959 97.4968C710.959 102.537 720.031 106.121 731.455 106.121C746.575 106.121 754.527 99.2888 754.527 88.2008C754.527 77.8968 746.799 73.8648 734.815 72.1848C730.895 71.6248 727.647 71.6249 727.647 69.2729C727.647 67.1448 730.335 66.1368 733.695 66.1368C737.503 66.1368 742.207 68.3768 745.903 68.3768C750.719 68.3768 752.735 65.2408 752.735 60.6488C752.735 57.5128 750.719 55.7208 748.367 54.7128C744.223 52.9208 739.519 52.3608 733.135 52.3608Z" fill="#09161D"/>
</svg>
